<?xml version="1.0" standalone="no"?>
<svg width="100%" height="100%" xmlns="http://www.w3.org/2000/svg" version="1.2"
xmlns:xlink="http://www.w3.org/1999/xlink"
onmousedown="fnGetElement(evt);"
	onload="fnSVGInit(evt)"
   onmousemove="fnGetTrueCoords(evt);fnShowTooltip(evt, true);"
   onmouseout="fnShowTooltip(evt, false)" 
   zoomAndPan="disable"
	viewbox="0 0 900 700">
<defs>
  <menu id="myCustomMenu" xmlns="http://www.w3.org/1999/xlink">
    <header>Custom Menu</header>
    <item xmlns="http://www.w3.org/1999/xlink"  target="blank window" >Case Overview</item>
    <separator />
  </menu>  
  <menu id="myCustomMenu1" xmlns="http://www.w3.org/1999/xlink">
    <header>Custom Menu</header>
  </menu>  
</defs>
<defs>
    <filter id="DropShadowFilter" filterUnits="objectBoundingBox" x="-10%" y="-10%" width="120%" height="120%">
	<feGaussianBlur in="SourceAlpha" stdDeviation="5" result="BlurAlpha"/>
      <feOffset in="BlurAlpha" dx="4" dy="4" result="OffsetBlurAlpha"/>
      <feMerge>
        <feMergeNode in="OffsetBlurAlpha"/>
        <feMergeNode in="SourceGraphic"/>
      </feMerge>
     </filter>
  </defs>
  <defs>
    <filter id="DropShadowCountyFilter" filterUnits="objectBoundingBox" x="-10%" y="-10%" width="120%" height="120%">
	<feGaussianBlur in="SourceAlpha" stdDeviation="6" result="BlurAlpha"/>
      <feOffset in="BlurAlpha" dx="1" dy="1" result="OffsetBlurAlpha"/>
      <feMerge>
        <feMergeNode in="OffsetBlurAlpha"/>
        <feMergeNode in="SourceGraphic"/>
      </feMerge>
     </filter>
  </defs>
<!-- CQ34444 - Rectangle added for context menu IE 10 and 11 compatibility changes. --> 
<rect id="rectLayer" x="0" y="0" width="450" height="100%" fill="none" pointer-events="all"/>
<g transform="scale(1.03)">   
<g style="filter:url(#DropShadowFilter)">
		<a xlink:href="">
			<polygon id="C019" fill="#FFFFFF" stroke="#000000" points="196.9,33.1 144.3,1.5 144.3,0.7 140.2,2.4 140.2,3.2 133.7,3.2 131.3,8 128.1,8 128.1,11.3 
			122.4,14.5 119.1,24.2 117.5,25 116.7,25 116.7,32.3 115.9,32.3 115.9,34 115.1,34 115.1,35.6 114.3,35.6 114.3,38 113.5,38 
			112.7,41.2 110.2,42.9 109.4,46.1 106.2,48.5 105.4,50.2 103.8,50.2 100.5,54.2 96.5,55 94.8,58.3 94.8,59.1 99,58.6 133.7,97.9 
			134.5,96.3 141.8,100.4 150.7,96.3 153.2,92.3 153.2,85 155.6,81.7 "><title></title><desc></desc></polygon></a>
		<a xlink:href="">
			<polygon id="C016" fill="#FFFFFF" stroke="#000000" points="220.4,46.8 197.3,33.3 176.1,57.7 178.4,61.9 176.4,62.3 175.6,68.8 178,69.1 179.8,66.5 184.6,64.7 
			188.1,68.8 192,71.2 192,72.8 196.8,73.6 200,73.6 200.8,75.2 209.4,77 209.6,80.8 211.9,80.8 213.1,89.1 211.1,91.9 213.5,95.1 
			213.5,99.1 215.1,101.5 237.3,115.9 238.4,109.4 239.9,108.9 235.8,93.5 234.2,93.5 234.2,84 232.6,82.4 220.7,81.6 214.3,76 
			211.8,71.9 "><title></title><desc></desc></polygon></a>
		<a xlink:href="">
			<polygon id="C002" fill="#FFFFFF" stroke="#000000" points="220.4,46.8 212.1,71.5 213.8,76.4 218.7,80.5 233.5,83 233.5,86.3 232.7,86.3 233.5,92.9 235.2,92.9 
			239.9,108.3 238.3,109.1 235.8,120.2 234.8,120.5 233.8,123.3 236.7,126.2 237.6,125.8 240.9,125.8 241.6,127.4 245.9,120 
			249.1,119.2 250.8,118.4 251.6,116.7 255.1,115 255.7,117.6 259.8,120.9 265.6,107.7 266.4,106 268.9,101.1 270.5,94.5 
			273.8,77.3 "><title></title><desc></desc></polygon></a>
		<a xlink:href="">
			<polygon id="C021" fill="#FFFFFF" stroke="#000000" points="100.2,59.3 99,58.6 94.9,59.4 94.9,60.2 90,66 90,68.4 87.5,69.2 87.5,70.1 85.9,70.1 85.1,71.7 
			83.4,71.7 83.4,72.5 81.8,72.5 81.8,73.3 79.3,73.3 78.5,75 76.9,75 76.1,76.6 73.6,77.4 73.6,78.2 72.8,78.2 72.8,80.7 72,80.7 
			72,83.2 74.4,82.3 74.4,86.4 76.1,87.3 78.5,93 81.8,95.4 81.8,100.4 85.9,103.6 83.4,110.2 83.4,111 79.3,110.2 78.5,111 
			80.1,113.5 80.1,117.6 77.7,119.2 76.9,123.3 64.6,127.4 64.6,129.8 61.3,131.5 63.8,134.8 62.9,139.7 61.3,140.5 61.3,142.9 
			60.5,142.9 64.6,147.9 61.3,152.8 60.5,161.8 62.1,166.7 64.6,163.4 68.7,160.1 75.2,156.9 76.9,155.2 80.1,152 99,140.5 
			101.4,137.2 109.6,127.4 116.2,121.7 119.5,120 120.3,117.6 121.1,117.6 121.1,115.9 121.9,115.9 121.9,114.3 124.4,112.6 
			126,107.7 126.8,107.7 126,102 128.5,101.2 133.1,97 130.1,93.8 "><title></title><desc></desc></polygon></a>
		<a xlink:href="">
			<polygon id="C014" fill="#FFFFFF" stroke="#000000" points="152.8,84.3 153.6,86.7 153.6,90.8 147.1,97.3 143,98.1 143,98.9 140.6,99.7 139.8,98.1 137.3,94.9 
			129.2,99.7 128.4,101.4 125.9,103 125.9,105.4 125.1,106.3 125.9,108.7 124.3,110.3 123.5,113.6 121,114.4 121.8,116 120.2,116.9 
			117.8,120.9 115.3,120.9 115.3,122.6 113.7,123.4 112.1,123.4 121.8,133.2 124.3,133.2 126.7,134 130,134.8 132.4,134.8 
			132.4,135.6 134.9,135.6 140.6,138 140.3,136.6 167.6,128.7 168.5,134.4 170.9,134.5 172.4,138.9 171.8,139.6 174.8,142.1 
			171.6,143.4 172.4,153.5 175.8,151.8 176.7,150.1 183,148.6 183.8,146.2 197.6,134.8 199.3,131.5 199.3,130.7 196.8,130.7 
			198.4,120.1 200.9,119.3 200.9,117.7 203.3,116 205,106.3 203.3,106.3 203.3,103.8 202.5,103.8 203.3,96.5 206.6,95.7 206.6,97.3 
			211.5,96.5 211.5,98.1 213.9,98.1 212.3,94 211.5,94 212.3,89.1 213.1,89.1 212.3,81 209.8,81 209.8,76.9 200.1,74.5 200.1,73.7 
			195.2,73.7 191.9,72.9 191.9,71.2 187,68 185.4,65.5 184.6,64.7 182.1,65.5 179.7,66.3 178.1,68.8 175.6,68.8 176.4,62.3 
			178.1,62.3 177.2,59 176.4,59 176.4,58.2 "><title></title><desc></desc></polygon></a>
		<a xlink:href="">
			<polygon id="C007" fill="#FFFFFF" stroke="#000000" points="239.8,142.8 238.9,133.7 232.7,135.2 231.1,131.7 234.8,120.5 235.6,120.5 237,115.8 215.1,101.2 
			214.2,99.4 213.4,99.1 211.6,96.6 208.4,96.6 206.5,95.6 204.3,96.6 202.6,96.6 202.6,100.7 201.8,100.7 203.2,106.6 204.2,106.6 
			202.2,117.2 200.2,118.1 197.7,120.5 197.7,125.5 196.8,130.7 197.7,132.1 197.7,133.7 198.5,133.7 202.6,137 202.6,137.9 
			206.8,137.9 208.4,139.5 210.1,137 224.1,142 224.1,144.5 228.2,143.6 236.2,146.7 238.1,143.6 239.8,142.8 "><title></title><desc></desc></polygon></a>
		<a xlink:href="">
			<polygon id="C009" fill="#FFFFFF" stroke="#000000" points="241.4,125.4 239.8,125.4 238.6,126.1 237.2,126.3 235.8,125.4 234.1,123.5 231,131.7 232.7,135.2 
			238.9,133.7 239,138.9 239.8,138.9 239.8,142.9 238.2,143.7 236.6,146.1 232.6,152.4 233.4,154 243.8,151.6 244.6,146.1 
			247,144.5 247,143.7 248.6,143.7 249.4,141.3 250.9,140.5 250.9,138.9 254.1,138.9 259.7,120.6 255.7,117.4 255.7,115 254.9,115 
			252,116.7 250.9,118.2 249.1,119.2 246.4,119.4 243.9,121.9 242.2,126 241.4,127.7 241.4,125.4 "><title></title><desc></desc></polygon>
		</a>
		<a xlink:href="">
			<polygon id="C010" fill="#FFFFFF" stroke="#000000" points="122.2,132.9 111.8,123.2 108.5,128.1 106.1,130.5 104.5,133.7 99.7,140.1 97.3,141.7 87.6,147.4 
			82,149.8 76.3,156.2 68.3,160.3 62.6,165.9 63.5,170.7 65.1,171.5 69.1,169.1 78.7,170.7 83.6,176.4 84.4,190.8 82.8,196.5 
			84.4,203.7 90,206.1 93.2,206.1 100.5,207.7 103.7,219.8 104.5,220.6 118.4,218.3 115.8,212.6 127,211 125.4,203.7 135.1,202.1 
			130.3,190.8 127,182 131.1,184.4 142.3,161.1 139.9,154.6 139.1,153 139.9,153 139.9,152.2 138.3,149 139.9,148.2 139.1,144.2 
			139.9,144.2 139.9,141.7 140.7,141.7 139.9,138.5 135.1,135.3 122.2,132.9 "><title></title><desc></desc></polygon>
		</a>
		<a xlink:href="">
			<polygon id="C018" fill="#FFFFFF" stroke="#000000" points="175.8,151.8 172.6,153.4 171.7,143.5 174.8,142.1 171.7,139.4 172.6,138.6 170.9,134.5 168.4,134.5 
			167.6,128.7 139.6,136.9 140.4,141.9 139.6,144.3 140.4,146 139.6,146 139.6,148.5 137.9,149.3 139.6,150.9 139.6,155.1 
			138.8,155.1 138.8,155.9 140.4,155.9 141.9,159.9 130.9,184 127,182 138.8,212.7 153.6,210.3 157.8,212.1 161.8,209.5 
			161.8,203.7 178.3,192 179.1,189.7 181.8,186.3 183.4,184.9 181.5,182.3 179.1,182.3 172.6,169.2 177.5,167 180,165.8 
			180.9,163.5 183.3,163.3 189.9,158.4 189.9,156.7 190.7,156.7 190.7,154.2 192.3,153.4 193.2,149.3 191.5,150.9 187.4,150.1 
			187.4,150.9 184.1,151.8 183.3,149.3 183.3,148.5 176.7,150.1 175.8,151.8 "><title></title><desc></desc></polygon></a>
		<a xlink:href="">
			<polygon id="C020" fill="#FFFFFF" stroke="#000000" points="224.7,163.5 221.4,163.5 216.9,162.8 210.8,165.2 208.4,161.1 183.3,163.3 189.9,158.1 189.9,156.7 
			191,156.7 191,154.3 192.3,153.4 193,149.8 191.5,150.9 187.4,150.1 187.4,150.9 184.4,151.6 183,148.6 183.8,146.2 198.5,133.7 
			202.4,136.9 206.8,137.9 208.4,139.5 210.1,137 224.1,142 224.1,144.5 228.2,143.6 235.7,146.6 232.6,152.4 227.7,152.6 
			225.2,155.4 "><title></title><desc></desc></polygon></a>
		<a xlink:href="">
			<polygon id="C011" fill="#FFFFFF" stroke="#000000" points="180.1,239.2 178.3,233.6 175,233.6 173.4,231.2 170.2,232 165.3,228.8 162.9,228 162.9,226.3 
			156.4,223.9 155.6,220.7 154.8,220.7 157.3,211 153.2,210.2 139.5,212.6 135.4,202.1 124.9,203.7 127.3,211 116,212.6 
			118.4,218.3 104.7,220.7 108.7,223.9 109.6,225.5 114.4,227.2 114.4,228.8 116.8,230.4 117.6,233.6 120.1,239.3 127.3,244.1 
			129,244.1 129,244.9 132.2,246.6 134.6,253.8 138.7,255.4 140.3,261.9 141.1,261.9 143.8,258.7 142.8,254.1 146.8,254.8 
			147.6,257.2 150,257.2 151.6,259.7 157.3,261.9 157.3,263.5 159.7,263.5 159.7,264.3 162.1,264.3 158.7,254.6 166.6,253.5 
			169.9,246.7 179.9,241.7 "><title></title><desc></desc></polygon></a>
		<a xlink:href="">
			<polygon id="C012" fill="#FFFFFF" stroke="#000000" points="218.3,206.5 218.9,199.8 220.8,197.5 222.2,196.9 222.2,195.3 215.7,192.8 214.1,185.5 214.9,183.9 
			216.5,183.1 216.5,181.4 217.3,177.4 219.8,172.5 223,171.7 224.7,168.4 224.7,163.5 221.4,163.5 216.5,162.7 210.8,165.2 
			208.4,161.1 180.7,163.5 179.9,166 172.6,169.2 179.1,182.3 181.5,182.3 183.1,184.7 179.1,189.6 178.3,192 162,203.4 162,209.1 
			156.3,213.2 154.6,220.5 155.6,220.7 156.3,223.8 162.8,226.2 162.8,227.9 163.6,227.9 163.6,228.7 165.2,228.7 170.2,232 
			173.6,231 175,233.6 178.3,233.6 179.9,239.3 184.4,239.9 194,234.1 "><title></title><desc></desc></polygon>
		</a>
		<a xlink:href="">
			<polygon id="C013" fill="#FFFFFF" stroke="#000000" points="262.9,205.8 262.1,205.8 259.7,193.8 258.1,191.4 256.5,190.6 258.1,193 259.7,204.2 247.8,201.8 
			246.2,199.4 243,198.6 243,197.8 238.2,197 237.4,195.4 234.2,196.2 234.2,197 228.7,196.2 227.9,198.6 225.5,199.4 223.9,199.4 
			223.9,197 222.3,196.2 219.9,197.8 218.3,200.2 218.3,206.5 193.6,234.4 184.1,240 180.1,239.2 180.1,241.6 179.3,241.6 
			173.7,244.8 169.8,247.1 166.6,253.5 158.6,254.3 159.4,256.7 162.6,264.7 168.2,275 169.8,275.8 191.2,255.9 216.7,256.7 
			216,260.2 218.4,261 219.3,268.3 225.9,269.5 225.7,268.3 234.2,270.2 235,271.8 242.8,263.5 243.6,266.4 247.9,273.1 
			254.1,270.2 263.7,212.1 262.9,212.1 262.9,205.8 "><title></title><desc></desc></polygon></a>
		<a xlink:href="">
			<polygon id="C003" fill="#FFFFFF" stroke="#000000" points="167.8,275 167,272.6 163,263.7 157.5,262.9 156.5,261.3 151.6,259.7 150,257.2 147.6,257.2 
			146.8,255.6 146.8,254.8 142.7,254 143.5,258.1 137.9,264.5 130.6,267.8 125.7,266.9 122.5,269.4 121.7,269.4 121.7,271.8 
			117.7,275.8 103.9,279.1 103.1,280.7 100.7,281.5 100.7,282.3 97.4,283.1 92.6,289.6 85.3,292 84.5,293.6 84.5,295.3 86.4,294.8 
			90.8,295.7 91.5,297.8 91.5,302.9 90.7,305.4 92.6,305.8 98.2,306.6 96.6,309 97.2,311.1 100.7,310.6 102.9,317.6 105.3,320 
			110.7,340.3 116.8,341.9 122.8,340.4 130.6,344.6 133,349.5 150,363.2 151.6,374.5 152.4,374.5 152.4,375.3 158.1,375.3 
			163.8,378.6 164.3,381.2 169.3,381.2 170.2,385.3 171,385.2 173.5,386.7 175.2,387.7 175.3,386.4 178.7,390.1 192,394.2 
			192.6,391.5 191.9,388.4 194.1,388.5 196.1,342.2 "><title></title><desc></desc></polygon></a>
		<a xlink:href="">
			<polygon id="C015" fill="#FFFFFF" stroke="#000000" points="244.4,266.7 243.6,266.7 242.7,263 236.2,270.5 234.9,271.5 234.2,270.2 225.7,268.3 225.7,269.1 
			219.3,268.3 218.4,261 216.8,260.2 216,260.2 216.8,257 191.7,255.4 169.8,275.6 168.2,275.6 195.7,341.3 194.1,388.3 
			191.7,388.3 193.3,394 194.1,394 194.1,395.6 194.9,395.6 197.4,402.9 208.7,401.3 212.8,401.3 212.8,400.5 218.4,393.2 
			220.1,392.4 241.9,348.6 244.4,346.2 246.8,325.9 254.1,270 247.6,273.2 244.4,266.7 "><title></title><desc></desc></polygon></a>
		<a xlink:href="">
			<polygon id="C004" fill="#FFFFFF" stroke="#000000" points="124.8,368 130.5,362.3 130.5,360.7 137.8,354.2 137.8,352.5 131.3,346.9 130.5,345.2 122.4,340.4 
			116.7,342 110.2,340.4 105.3,320 102.9,317.6 100.4,311.1 97.2,311.1 97.2,310.3 96.8,309.3 98.2,306.6 90.7,305.4 91.5,302.9 
			91.5,298.1 91.5,297.3 90.7,295.6 86.6,294.8 83.3,295.6 78.5,298.9 78.5,299.7 76,299.7 76,300.5 74.4,300.5 74.4,301.3 
			72,302.9 71.1,308.6 72.8,315.1 72,315.1 71.1,318.4 72.8,318.4 73.6,322.5 76.8,323.3 79.3,327.3 80.1,327.3 80.1,333 79.3,333 
			79.3,333.8 80.1,333.8 79.2,342.3 80.9,342.7 85.5,341.4 88.2,347.7 90.7,348.5 90.7,353.4 95.5,357.4 105.3,360.7 107.7,363.9 
			107.7,363.9 107.8,364 108.6,365.6 110.2,366.4 110.2,372.9 111,372.9 111,374.5 112.6,375.3 112.6,377.8 113.4,377.8 
			113.4,378.6 124,369.6 124,368 124.8,368 "><title></title><desc></desc></polygon></a>
		<a xlink:href="">
			<polygon id="C001" fill="#FFFFFF" stroke="#000000" points="164.5,381.1 164.5,379.5 162.8,377.8 159.6,376.2 159.6,375.4 155.5,376.2 155.5,374.6 152.2,375.4 
			150.6,364.7 150,363.1 148.9,362.3 148.1,359.8 139.1,352.5 136.6,352.5 96.5,397.5 95.7,399.1 117.8,418.8 118.6,422.9 
			117.8,422.9 117.8,427.8 118.6,427.8 118.6,431.1 117.8,431.1 117.8,432.7 117,432.7 117,436.8 116.2,436.8 117,442.5 122,443 
			123.1,445.3 129.4,444.5 130.8,444.5 131.9,446.7 141.1,446.9 144,448.3 152.2,447.4 153,447.4 157.9,448.3 158.7,446.6 
			160.4,446.6 162,444.2 166.1,445.8 166.1,446.6 166.1,446.6 169.4,446.6 169.4,447.4 184.1,437.6 184.9,436 194,432.7 
			200.5,424.5 200.5,423.7 203,422.1 203,420.4 206.2,418 206.2,416.3 207.9,415.5 207.9,413.9 212,408.1 209.6,401.1 198,402.4 
			194,391.8 191.4,392.5 192,394.2 178.4,390.1 175.1,386 175.1,387.7 171,385.2 170.2,385.2 169.4,381.3 169.2,381.1 164.5,381.1"><title></title><desc></desc></polygon></a>
		<a xlink:href="">
			<polygon id="C008" fill="#FFFFFF" stroke="#000000" points="106.9,363.5 106.1,361 102.8,360.2 102,358.6 98.7,359.4 98.7,358.6 95.5,357.8 91.4,352.9 
			90.6,352.9 90.6,348.8 89,348 85.7,341.5 83.3,341.5 83.3,343.1 79.2,342.3 80,338.2 81.6,338.2 80,334.2 80,327.7 78.4,326.8 
			76.8,323.3 73.4,321.2 72.7,318.7 71.1,318.7 67,318.7 67,319.5 62.1,319.5 58.9,323.6 45,326.8 39.3,326 39.3,326.8 35.3,327.7 
			32,331.7 30.4,331.7 25.5,335.8 26.3,338.2 25.5,339 27.1,344.8 28.8,344.8 28.8,347.2 30.6,348.3 34.1,356.8 38.2,358 39,361.4 
			45.7,362.1 46.5,363.7 50.7,362.7 52.4,363.5 52.4,365.9 59.7,366.7 61.5,367.1 66.2,370 91.5,393.4 94.7,397.5 97.1,397.4 
			113.4,378.6 112.6,378.1 111.8,374.9 110.9,374.9 110.9,373.2 110.1,373.2 110.1,366.7 109.3,366.7 108.5,363.5 106.9,363.5 "><title></title><desc></desc></polygon></a>
		<a xlink:href="">
			<polygon id="C017" fill="#FFFFFF" stroke="#000000" points="69.2,402 80.8,411.4 85.1,387.6 71.6,375.1 66.7,370.2 64.4,368.6 61.9,367 52.2,366.2 52.2,363.7 
			48.1,362.9 46.5,363.7 45.7,362.1 39.1,361.3 38.3,358 33.9,356.2 31,348.3 28.7,347.1 28.6,345.8 28.6,345 26.7,344.3 
			26.9,340.1 22.1,340.1 22.1,341 18,344.2 17.2,344.2 16.4,349.1 15.6,349.1 14.7,355.6 12.3,355.6 11.5,358.8 9.9,359.7 9,359.7 
			9,364.5 4.2,371 2.5,371 2.5,372.7 0.9,372.7 8.2,384.1 7.4,391.4 5,393 5.8,403.6 3.4,403.6 4.2,410.9 9,410.9 10.7,413.3 
			10.7,414.2 12.3,414.2 13.1,415.8 16.4,415.8 21.3,426.4 22.9,427.2 23.7,425.5 24.5,425.5 24.2,423.9 23.6,420.6 24.5,415 
			25.3,410.9 31.9,412.4 33.5,409.3 35.1,409.3 35.9,406.8 36.7,404.2 39.1,404.9 48.1,397.1 48.1,395.4 48.7,394.9 53.8,388.9 
			55.4,390.6 "><title></title><desc></desc></polygon></a>
		<a xlink:href="">
			<polygon id="C006" fill="#FFFFFF" stroke="#000000" points="91.5,393.4 84.1,387.7 80.8,411.4 69.4,401.6 63.7,396.7 59.6,393.4 57.9,392.6 53.9,389.3 
			49.8,394.3 48.1,395.1 48.1,396.7 39.1,404.9 36.7,404.1 35,409 33.4,409 31.8,412.2 25.2,410.6 24.4,413.9 24.3,415.9 
			23.6,419.9 23.6,421.2 24.4,425.3 25.2,427.8 26.9,427.8 31,435.1 31,436 32.6,435.1 39.1,436.8 39.1,440 40,440 40,441.7 
			40.8,441.7 40.8,444.1 41.6,444.1 44.9,448.2 45.7,448.2 45.7,445.8 52.2,445.8 53.9,450.7 53,450.7 53,451.5 62,455.6 63.7,458 
			65.3,458.9 65.3,460.5 66.1,460.5 66.1,462.9 66.9,462.9 66.9,468.7 67.8,468.7 70.2,471.9 71.8,471.9 74.3,466.2 79.2,465.4 
			81.7,466.2 81.7,465.4 90.7,465.4 91.5,468.7 90.7,468.7 90.7,469.5 97.2,470.3 99.7,469.5 107.8,471.9 107.8,462.1 109.3,462.1 
			114.4,444.1 117.6,441.7 120.1,427.8 119.3,427.8 119.3,425.3 118.5,425.3 120.1,421.2 119.3,421.2 105.4,405.7 103.7,405.7 
			103.7,404.9 96.4,397.5 94.7,397.5 91.5,393.4 "><title></title><desc></desc></polygon></a>
		<a xlink:href="">
			<polygon id="C005" fill="#FFFFFF" stroke="#000000" points="165.8,445.3 162.6,443.8 158.6,447.7 153.8,446.9 145.9,447.7 141.1,446.9 135.5,446.9 133.1,446.9 
			131.5,446.1 130.8,444.5 122.8,445.3 122,443 118.8,443 117.1,442.2 114,444.5 109.3,462.1 107.7,462.1 107.8,471.9 111.6,474.8 
			113.2,474.8 114,481.2 113.2,481.2 113.2,485.1 112.4,485.1 112.4,489.1 111.6,489.1 111.6,491.5 110.9,491.5 110.1,494.7 
			109.3,494.7 109.3,496.3 107.7,497.1 106.9,500.3 106.1,500.3 105.3,503.4 104.5,503.4 104.5,505.8 103.7,505.8 103.7,507.4 
			102.9,507.4 99.7,520.2 100.5,525.7 118,522.6 118.8,521 125.2,513.8 129.2,512.2 130.8,505 132.3,504.2 133.1,501.1 134.7,500.3 
			135.5,497.1 137.1,496.3 137.1,494.7 139.5,493.1 142.7,488.3 143.5,488.3 141.9,483.6 142.7,483.6 142.7,482 144.3,481.2 
			144.3,479.6 145.1,479.6 145.1,478 145.9,478 145.9,476.4 146.7,476.4 146.7,474.8 147.5,474.8 147.5,473.2 148.3,473.2 
			148.3,471.6 151.4,469.2 153,464.4 154.6,463.7 154.6,462.1 156.2,461.3 156.2,459.7 158.6,458.1 158.6,456.5 169,448.5 
			169,446.9 165.8,445.3 165.8,445.3 165.8,445.3 "><title></title><desc></desc></polygon>
		</a>	
</g>
<!-- CQINT00029458 - Code Modified for Enhancement changes - Start-->	
<g>
		<!--<a xlink:href=""><image id="C000" display='block' overflow="" enable-background="new" width="42" height="50" xlink:href="" transform="matrix(1 0 0 1 62.2783 220.9651)"><title></title><desc></desc></image></a>-->
</g>
<a xlink:href="" id="a" onclick="fnGraphOnClick(evt)">
	<g transform="scale(0.13),translate(120,1640)">
	    <path id="C000" fill="#FFFFFF" d="M 477.33557 76.303024 c -1.2823181 4.8591156 -1.04422 9.592667 -4.1810913 23.835175 c -0.17959595 0.80578613 4.5278015 0.87205505 4.5278015 0.87205505 l -1.0400696 10.537979 c -14.276733 3.4149933 -16.014313 15.334335 -8.358032 18.131897 l 0.08773804 26.343231 c -9.661224 1.3080902 -17.847992 12.13559 -16.532257 12.13559 c 0.0 0.0 -60.13098 24.70723 -56.65161 69.76488 c 0.025054932 0.28955078 -27.413147 7.1962585 -27.149994 22.673615 c 0.096069336 5.888153 5.7432556 
	        9.303131 5.7432556 9.303131 s 1.5705261 26.451355 0.0 26.88739 c -31.326904 6.324188 -37.333344 22.021301 -22.85611 37.06259 l 0.75601196 56.39444 c 0.0 0.0 144.79721 -26.744354 290.98953 -2.3266602 c 1.0441895 0.0 -1.0442505 -53.19571 -1.0442505 -53.19571 s 20.884583 -21.149231 -26.105774 -37.06259 c -0.51794434 -2.469696 -1.0400391 -27.46994 -1.0400391 -27.46994 s 4.8703003 1.5418091 4.8703003 -8.138062 c 0.0 -15.697113 -32.458862 -23.545654 -31.026184 -23.545654 c -0.4761963 -30.66864 
	        -33.369446 -62.062836 -63.915283 -70.34743 c 0.0 0.0 -9.657043 -11.992584 -18.361755 -12.428604 l -0.6307068 -26.542053 c 9.594391 -2.235962 1.5872192 -19.530685 -11.202515 -17.713303 c -0.9272766 0.1325531 -2.6983032 -11.772827 -2.6983032 -11.772827 l -4.4400635 -26.015335 C 487.0802 73.68683 478.46326 72.01601 477.33557 76.303024 z" stroke-width="3" stroke="#000000"><title></title><desc></desc></path>
	    <path pointer-events="none" stroke-width="2" style="stroke: rgb(0, 0, 0); fill: none;" d="M 345.0 324.0 C 345.0 324.0 349.5109 317.14285 349.5109 317.14285 C 349.5109 317.14285 359.76294 310.79364 359.76294 310.79364 C 359.76294 310.79364 372.47546 305.96826 372.47546 305.96826 C 372.47546 305.96826 382.31744 303.42856 382.31744 303.42856 C 382.31744 303.42856 392.97955 300.8889 392.97955 300.8889 C 392.97955 300.8889 403.64166 298.85715 403.64166 298.85715 C 403.64166 298.85715 414.30383 297.33334 414.30383 297.33334 C 414.30383 
	        297.33334 426.19617 295.55554 426.19617 295.55554 C 426.19617 295.55554 435.62805 294.79364 435.62805 294.79364 C 435.62805 294.79364 447.11035 293.77777 447.11035 293.77777 C 447.11035 293.77777 459.00275 293.01587 459.00275 293.01587 C 459.00275 293.01587 471.30518 292.50793 471.30518 292.50793 C 471.30518 292.50793 484.8379 292.0 484.8379 292.0 C 484.8379 292.0 495.9101 292.0 495.9101 292.0 C 495.9101 292.0 510.26294 292.25397 510.26294 292.25397 C 510.26294 292.25397 520.515 
	        292.50793 520.515 292.50793 C 520.515 292.50793 533.6376 293.26984 533.6376 293.26984 C 533.6376 293.26984 543.88965 293.77777 543.88965 293.77777 C 543.88965 293.77777 555.37195 294.79364 555.37195 294.79364 C 555.37195 294.79364 566.44415 296.06348 566.44415 296.06348 C 566.44415 296.06348 576.28613 297.33334 576.28613 297.33334 C 576.28613 297.33334 588.17847 299.1111 588.17847 299.1111 C 588.17847 299.1111 598.43054 301.14285 598.43054 301.14285 C 598.43054 301.14285 608.27246 
	        302.92062 608.27246 302.92062 C 608.27246 302.92062 618.52454 306.22223 618.52454 306.22223 C 618.52454 306.22223 626.72614 309.01587 626.72614 309.01587 C 626.72614 309.01587 634.5177 312.57144 634.5177 312.57144 C 634.5177 312.57144 639.0286 315.36508 639.0286 315.36508 C 639.0286 315.36508 643.12946 318.66666 643.12946 318.66666 C 643.12946 318.66666 646.0 322.98413 646.0 322.98413"/>
	    <path pointer-events="none" stroke-width="2" style="stroke: rgb(0, 0, 0); fill: none;" d="M 374.0 295.0 C 374.0 295.0 377.61176 291.57144 377.61176 291.57144 C 377.61176 291.57144 385.8202 288.39682 385.8202 288.39682 C 385.8202 288.39682 395.99866 285.98413 395.99866 285.98413 C 395.99866 285.98413 403.87872 284.7143 403.87872 284.7143 C 403.87872 284.7143 412.41553 283.44446 412.41553 283.44446 C 412.41553 283.44446 420.95233 282.4286 420.95233 282.4286 C 420.95233 282.4286 429.48907 281.6667 429.48907 281.6667 C 429.48907 
	        281.6667 439.01093 280.77777 439.01093 280.77777 C 439.01093 280.77777 446.56268 280.39682 446.56268 280.39682 C 446.56268 280.39682 455.7561 279.8889 455.7561 279.8889 C 455.7561 279.8889 465.2779 279.50793 465.2779 279.50793 C 465.2779 279.50793 475.12805 279.25397 475.12805 279.25397 C 475.12805 279.25397 485.96326 279.0 485.96326 279.0 C 485.96326 279.0 494.8283 279.0 494.8283 279.0 C 494.8283 279.0 506.3202 279.12698 506.3202 279.12698 C 506.3202 279.12698 514.5286 279.25397 
	        514.5286 279.25397 C 514.5286 279.25397 525.0354 279.63492 525.0354 279.63492 C 525.0354 279.63492 533.2439 279.8889 533.2439 279.8889 C 533.2439 279.8889 542.4373 280.39682 542.4373 280.39682 C 542.4373 280.39682 551.3025 281.03174 551.3025 281.03174 C 551.3025 281.03174 559.1826 281.6667 559.1826 281.6667 C 559.1826 281.6667 568.70435 282.55554 568.70435 282.55554 C 568.70435 282.55554 576.91284 283.5714 576.91284 283.5714 C 576.91284 283.5714 584.79297 284.46033 584.79297 284.46033 C 
	        584.79297 284.46033 593.0014 286.1111 593.0014 286.1111 C 593.0014 286.1111 599.5681 287.50793 599.5681 287.50793 C 599.5681 287.50793 605.8065 289.2857 605.8065 289.2857 C 605.8065 289.2857 609.4183 290.68253 609.4183 290.68253 C 609.4183 290.68253 612.70166 292.33334 612.70166 292.33334 C 612.70166 292.33334 615.0 294.49207 615.0 294.49207"/>
	    <path pointer-events="none" stroke-width="2" style="stroke: rgb(0, 0, 0); fill: none;" d="M 352.0 334.0 C 352.0 334.0 356.34607 329.2857 356.34607 329.2857 C 356.34607 329.2857 366.22345 324.92062 366.22345 324.92062 C 366.22345 324.92062 378.47137 321.60318 378.47137 321.60318 C 378.47137 321.60318 387.95367 319.85715 387.95367 319.85715 C 387.95367 319.85715 398.22614 318.1111 398.22614 318.1111 C 398.22614 318.1111 408.49866 316.7143 408.49866 316.7143 C 408.49866 316.7143 418.77112 315.66666 418.77112 315.66666 C 418.77112 
	        315.66666 430.22888 314.44446 430.22888 314.44446 C 430.22888 314.44446 439.3161 313.92062 439.3161 313.92062 C 439.3161 313.92062 450.37872 313.22223 450.37872 313.22223 C 450.37872 313.22223 461.8365 312.69843 461.8365 312.69843 C 461.8365 312.69843 473.6894 312.3492 473.6894 312.3492 C 473.6894 312.3492 486.72754 312.0 486.72754 312.0 C 486.72754 312.0 497.39508 312.0 497.39508 312.0 C 497.39508 312.0 511.22345 312.1746 511.22345 312.1746 C 511.22345 312.1746 521.1008 312.3492 
	        521.1008 312.3492 C 521.1008 312.3492 533.7439 312.87302 533.7439 312.87302 C 533.7439 312.87302 543.6213 313.22223 543.6213 313.22223 C 543.6213 313.22223 554.6839 313.92062 554.6839 313.92062 C 554.6839 313.92062 565.3515 314.79364 565.3515 314.79364 C 565.3515 314.79364 574.8338 315.66666 574.8338 315.66666 C 574.8338 315.66666 586.29156 316.8889 586.29156 316.8889 C 586.29156 316.8889 596.16895 318.2857 596.16895 318.2857 C 596.16895 318.2857 605.65125 319.50793 605.65125 319.50793 C 
	        605.65125 319.50793 615.5286 321.77777 615.5286 321.77777 C 615.5286 321.77777 623.43054 323.69843 623.43054 323.69843 C 623.43054 323.69843 630.9373 326.14285 630.9373 326.14285 C 630.9373 326.14285 635.2834 328.0635 635.2834 328.0635 C 635.2834 328.0635 639.2343 330.33334 639.2343 330.33334 C 639.2343 330.33334 642.0 333.30157 642.0 333.30157"/>
	    <path pointer-events="none" stroke-width="2" style="stroke: rgb(0, 0, 0); fill: none;" d="M 368.0 260.0 C 368.0 260.0 371.76154 253.14285 371.76154 253.14285 C 371.76154 253.14285 380.3106 246.79364 380.3106 246.79364 C 380.3106 246.79364 390.9115 241.96826 390.9115 241.96826 C 390.9115 241.96826 399.11847 239.42859 399.11847 239.42859 C 399.11847 239.42859 408.00952 236.88889 408.00952 236.88889 C 408.00952 236.88889 416.9005 234.85715 416.9005 234.85715 C 416.9005 234.85715 425.79156 233.33331 425.79156 233.33331 C 425.79156 
	        233.33331 435.70844 231.55556 435.70844 231.55556 C 435.70844 231.55556 443.5736 230.79366 443.5736 230.79366 C 443.5736 230.79366 453.1485 229.77777 453.1485 229.77777 C 453.1485 229.77777 463.06537 229.01587 463.06537 229.01587 C 463.06537 229.01587 473.32422 228.50793 473.32422 228.50793 C 473.32422 228.50793 484.60895 228.0 484.60895 228.0 C 484.60895 228.0 493.84192 228.0 493.84192 228.0 C 493.84192 228.0 505.8106 228.25397 505.8106 228.25397 C 505.8106 228.25397 514.3596 228.50793 
	        514.3596 228.50793 C 514.3596 228.50793 525.3024 229.26984 525.3024 229.26984 C 525.3024 229.26984 533.8515 229.77777 533.8515 229.77777 C 533.8515 229.77777 543.4264 230.79366 543.4264 230.79366 C 543.4264 230.79366 552.65936 232.06348 552.65936 232.06348 C 552.65936 232.06348 560.8665 233.33331 560.8665 233.33331 C 560.8665 233.33331 570.7833 235.11111 570.7833 235.11111 C 570.7833 235.11111 579.33246 237.14285 579.33246 237.14285 C 579.33246 237.14285 587.5395 238.92065 587.5395 
	        238.92065 C 587.5395 238.92065 596.08856 242.22223 596.08856 242.22223 C 596.08856 242.22223 602.9278 245.01587 602.9278 245.01587 C 602.9278 245.01587 609.4251 248.57141 609.4251 248.57141 C 609.4251 248.57141 613.18665 251.36508 613.18665 251.36508 C 613.18665 251.36508 616.60626 254.66669 616.60626 254.66669 C 616.60626 254.66669 619.0 258.98413 619.0 258.98413"/>
	    <path pointer-events="none" stroke-width="2" style="stroke: rgb(0, 0, 0); fill: none;" d="M 395.0 228.0 C 395.0 228.0 397.86243 225.0 397.86243 225.0 C 397.86243 225.0 404.36786 222.22223 404.36786 222.22223 C 404.36786 222.22223 412.43457 220.11111 412.43457 220.11111 C 412.43457 220.11111 418.6798 219.0 418.6798 219.0 C 418.6798 219.0 425.44543 217.88889 425.44543 217.88889 C 425.44543 217.88889 432.21112 217.0 432.21112 217.0 C 432.21112 217.0 438.9768 216.33333 438.9768 216.33333 C 438.9768 216.33333 446.5232 215.55556 
	        446.5232 215.55556 C 446.5232 215.55556 452.50818 215.22223 452.50818 215.22223 C 452.50818 215.22223 459.7943 214.77777 459.7943 214.77777 C 459.7943 214.77777 467.34064 214.44444 467.34064 214.44444 C 467.34064 214.44444 475.14716 214.22223 475.14716 214.22223 C 475.14716 214.22223 483.7343 214.0 483.7343 214.0 C 483.7343 214.0 490.76025 214.0 490.76025 214.0 C 490.76025 214.0 499.86786 214.11111 499.86786 214.11111 C 499.86786 214.11111 506.37335 214.22223 506.37335 214.22223 C 
	        506.37335 214.22223 514.70026 214.55556 514.70026 214.55556 C 514.70026 214.55556 521.2057 214.77777 521.2057 214.77777 C 521.2057 214.77777 528.4918 215.22223 528.4918 215.22223 C 528.4918 215.22223 535.5177 215.77777 535.5177 215.77777 C 535.5177 215.77777 541.76294 216.33333 541.76294 216.33333 C 541.76294 216.33333 549.30927 217.11111 549.30927 217.11111 C 549.30927 217.11111 555.8147 218.0 555.8147 218.0 C 555.8147 218.0 562.06 218.77777 562.06 218.77777 C 562.06 218.77777 568.5654 
	        220.22223 568.5654 220.22223 C 568.5654 220.22223 573.7698 221.44444 573.7698 221.44444 C 573.7698 221.44444 578.7139 223.0 578.7139 223.0 C 578.7139 223.0 581.5763 224.22223 581.5763 224.22223 C 581.5763 224.22223 584.1785 225.66667 584.1785 225.66667 C 584.1785 225.66667 586.0 227.55556 586.0 227.55556"/>
	    <path pointer-events="none" stroke-width="2" style="stroke: rgb(0, 0, 0); fill: none;" d="M 375.0 270.0 C 375.0 270.0 378.58173 264.4286 378.58173 264.4286 C 378.58173 264.4286 386.72205 259.26984 386.72205 259.26984 C 386.72205 259.26984 396.81604 255.34921 396.81604 255.34921 C 396.81604 255.34921 404.6308 253.2857 404.6308 253.2857 C 404.6308 253.2857 413.09674 251.22223 413.09674 251.22223 C 413.09674 251.22223 421.56268 249.57141 421.56268 249.57141 C 421.56268 249.57141 430.02863 248.33331 430.02863 248.33331 C 430.02863 
	        248.33331 439.47137 246.88889 439.47137 246.88889 C 439.47137 246.88889 446.96057 246.26984 446.96057 246.26984 C 446.96057 246.26984 456.07764 245.44446 456.07764 245.44446 C 456.07764 245.44446 465.5204 244.82538 465.5204 244.82538 C 465.5204 244.82538 475.28882 244.41272 475.28882 244.41272 C 475.28882 244.41272 486.03406 244.0 486.03406 244.0 C 486.03406 244.0 494.82562 244.0 494.82562 244.0 C 494.82562 244.0 506.22205 244.20636 506.22205 244.20636 C 506.22205 244.20636 514.3624 
	        244.41272 514.3624 244.41272 C 514.3624 244.41272 524.782 245.03174 524.782 245.03174 C 524.782 245.03174 532.9223 245.44446 532.9223 245.44446 C 532.9223 245.44446 542.03955 246.26984 542.03955 246.26984 C 542.03955 246.26984 550.83105 247.30157 550.83105 247.30157 C 550.83105 247.30157 558.6458 248.33331 558.6458 248.33331 C 558.6458 248.33331 568.0885 249.77777 568.0885 249.77777 C 568.0885 249.77777 576.2289 251.42859 576.2289 251.42859 C 576.2289 251.42859 584.0436 252.87302 
	        584.0436 252.87302 C 584.0436 252.87302 592.18396 255.55554 592.18396 255.55554 C 592.18396 255.55554 598.6962 257.82538 598.6962 257.82538 C 598.6962 257.82538 604.8828 260.7143 604.8828 260.7143 C 604.8828 260.7143 608.46454 262.98413 608.46454 262.98413 C 608.46454 262.98413 611.72064 265.6667 611.72064 265.6667 C 611.72064 265.6667 614.0 269.17462 614.0 269.17462"/>
	    <path pointer-events="none" stroke-width="2" style="stroke: rgb(0, 0, 0); fill: none;" d="M 452.0 167.0 C 452.0 167.0 453.04907 165.92857 453.04907 165.92857 C 453.04907 165.92857 455.43323 164.93651 455.43323 164.93651 C 455.43323 164.93651 458.38965 164.18254 458.38965 164.18254 C 458.38965 164.18254 460.67847 163.7857 460.67847 163.7857 C 460.67847 163.7857 463.15802 163.38889 463.15802 163.38889 C 463.15802 163.38889 465.63763 163.07143 465.63763 163.07143 C 465.63763 163.07143 468.1172 162.83333 468.1172 162.83333 C 468.1172 
	        162.83333 470.8828 162.55556 470.8828 162.55556 C 470.8828 162.55556 473.0763 162.43651 473.0763 162.43651 C 473.0763 162.43651 475.74658 162.27777 475.74658 162.27777 C 475.74658 162.27777 478.51227 162.15872 478.51227 162.15872 C 478.51227 162.15872 481.3733 162.07936 481.3733 162.07936 C 481.3733 162.07936 484.52045 162.0 484.52045 162.0 C 484.52045 162.0 487.0954 162.0 487.0954 162.0 C 487.0954 162.0 490.43323 162.03969 490.43323 162.03969 C 490.43323 162.03969 492.81744 162.07936 
	        492.81744 162.07936 C 492.81744 162.07936 495.8692 162.19841 495.8692 162.19841 C 495.8692 162.19841 498.25342 162.27777 498.25342 162.27777 C 498.25342 162.27777 500.9237 162.43651 500.9237 162.43651 C 500.9237 162.43651 503.4986 162.63492 503.4986 162.63492 C 503.4986 162.63492 505.78748 162.83333 505.78748 162.83333 C 505.78748 162.83333 508.5531 163.11111 508.5531 163.11111 C 508.5531 163.11111 510.93738 163.42857 510.93738 163.42857 C 510.93738 163.42857 513.2262 163.70634 513.2262 
	        163.70634 C 513.2262 163.70634 515.61035 164.22223 515.61035 164.22223 C 515.61035 164.22223 517.5177 164.65872 517.5177 164.65872 C 517.5177 164.65872 519.3297 165.2143 519.3297 165.2143 C 519.3297 165.2143 520.3788 165.65079 520.3788 165.65079 C 520.3788 165.65079 521.3324 166.16667 521.3324 166.16667 C 521.3324 166.16667 522.0 166.84128 522.0 166.84128"/>
	    <path pointer-events="none" stroke-width="3" style="stroke: rgb(0, 0, 0); fill: none;" d="M 352.0 382.0 C 352.0 382.0 356.36102 379.0 356.36102 379.0 C 356.36102 379.0 366.27246 376.22223 366.27246 376.22223 C 366.27246 376.22223 378.56268 374.1111 378.56268 374.1111 C 378.56268 374.1111 388.07764 373.0 388.07764 373.0 C 388.07764 373.0 398.38556 371.8889 398.38556 371.8889 C 398.38556 371.8889 408.69348 371.0 408.69348 371.0 C 408.69348 371.0 419.00134 370.33334 419.00134 370.33334 C 419.00134 370.33334 430.49866 369.55554 
	        430.49866 369.55554 C 430.49866 369.55554 439.6172 369.22223 439.6172 369.22223 C 439.6172 369.22223 450.71796 368.77777 450.71796 368.77777 C 450.71796 368.77777 462.21527 368.44446 462.21527 368.44446 C 462.21527 368.44446 474.109 368.22223 474.109 368.22223 C 474.109 368.22223 487.19208 368.0 487.19208 368.0 C 487.19208 368.0 497.89648 368.0 497.89648 368.0 C 497.89648 368.0 511.77246 368.1111 511.77246 368.1111 C 511.77246 368.1111 521.6839 368.22223 521.6839 368.22223 C 521.6839 
	        368.22223 534.37054 368.55554 534.37054 368.55554 C 534.37054 368.55554 544.28204 368.77777 544.28204 368.77777 C 544.28204 368.77777 555.3828 369.22223 555.3828 369.22223 C 555.3828 369.22223 566.0872 369.77777 566.0872 369.77777 C 566.0872 369.77777 575.6022 370.33334 575.6022 370.33334 C 575.6022 370.33334 587.0994 371.1111 587.0994 371.1111 C 587.0994 371.1111 597.0109 372.0 597.0109 372.0 C 597.0109 372.0 606.5259 372.77777 606.5259 372.77777 C 606.5259 372.77777 616.4373 374.22223 
	        616.4373 374.22223 C 616.4373 374.22223 624.36646 375.44446 624.36646 375.44446 C 624.36646 375.44446 631.8992 377.0 631.8992 377.0 C 631.8992 377.0 636.2602 378.22223 636.2602 378.22223 C 636.2602 378.22223 640.2248 379.66666 640.2248 379.66666 C 640.2248 379.66666 643.0 381.55554 643.0 381.55554"/>
	    <line pointer-events="none" y2="378.0" style="stroke: rgb(0, 0, 0); fill: none;" x1="360.0" x2="360.0" y1="327.0"/>
	    <line pointer-events="none" y2="374.5" style="stroke: rgb(0, 0, 0); fill: none;" x1="376.0" x2="376.0" y1="322.0"/>
	    <line pointer-events="none" y2="372.0" style="stroke: rgb(0, 0, 0); fill: none;" x1="395.0" x2="395.0" y1="318.5"/>
	    <line pointer-events="none" y2="370.5" style="stroke: rgb(0, 0, 0); fill: none;" x1="415.5" x2="415.5" y1="315.5"/>
	    <line pointer-events="none" y2="369.0" style="stroke: rgb(0, 0, 0); fill: none;" x1="436.5" x2="436.5" y1="313.5"/>
	    <line pointer-events="none" y2="368.5" style="stroke: rgb(0, 0, 0); fill: none;" x1="458.0" x2="458.0" y1="312.5"/>
	    <line pointer-events="none" y2="368.0" style="stroke: rgb(0, 0, 0); fill: none;" x1="480.0" x2="480.0" y1="312.0"/>
	    <line pointer-events="none" y2="368.0" style="stroke: rgb(0, 0, 0); fill: none;" x1="502.0" x2="502.0" y1="312.0"/>
	    <line pointer-events="none" y2="368.5" style="stroke: rgb(0, 0, 0); fill: none;" x1="523.0" x2="523.0" y1="312.5"/>
	    <line pointer-events="none" y2="368.5" style="stroke: rgb(0, 0, 0); fill: none;" x1="545.5" x2="545.5" y1="313.5"/>
	    <line pointer-events="none" y2="369.5" style="stroke: rgb(0, 0, 0); fill: none;" x1="566.5" x2="566.5" y1="314.5"/>
	    <line pointer-events="none" y2="371.0" style="stroke: rgb(0, 0, 0); fill: none;" x1="585.5" x2="585.5" y1="316.5"/>
	    <line pointer-events="none" y2="372.5" style="stroke: rgb(0, 0, 0); fill: none;" x1="604.5" x2="604.5" y1="319.5"/>
	    <line pointer-events="none" y2="375.0" style="stroke: rgb(0, 0, 0); fill: none;" x1="624.0" x2="624.0" y1="323.5"/>
	    <line pointer-events="none" y2="287.0" style="stroke: rgb(0, 0, 0); fill: none;" x1="386.0" x2="386.0" y1="259.0"/>
	    <line pointer-events="none" y2="284.0" style="stroke: rgb(0, 0, 0); fill: none;" x1="404.0" x2="404.0" y1="253.0"/>
	    <line pointer-events="none" y2="281.0" style="stroke: rgb(0, 0, 0); fill: none;" x1="425.0" x2="425.0" y1="249.0"/>
	    <line pointer-events="none" y2="279.0" style="stroke: rgb(0, 0, 0); fill: none;" x1="447.0" x2="447.0" y1="246.0"/>
	    <line pointer-events="none" y2="279.0" style="stroke: rgb(0, 0, 0); fill: none;" x1="471.0" x2="471.0" y1="244.0"/>
	    <line pointer-events="none" y2="279.0" style="stroke: rgb(0, 0, 0); fill: none;" x1="496.0" x2="496.0" y1="244.0"/>
	    <line pointer-events="none" y2="279.0" style="stroke: rgb(0, 0, 0); fill: none;" x1="522.0" x2="522.0" y1="245.0"/>
	    <line pointer-events="none" y2="280.0" style="stroke: rgb(0, 0, 0); fill: none;" x1="548.0" x2="548.0" y1="247.0"/>
	    <line pointer-events="none" y2="282.0" style="stroke: rgb(0, 0, 0); fill: none;" x1="571.0" x2="571.0" y1="250.0"/>
	    <line pointer-events="none" y2="286.0" style="stroke: rgb(0, 0, 0); fill: none;" x1="593.0" x2="593.0" y1="256.0"/>
	    <line pointer-events="none" y2="291.0" style="stroke: rgb(0, 0, 0); fill: none;" x1="610.0" x2="610.0" y1="265.0"/>
	    <line pointer-events="none" y2="124.0" style="stroke: rgb(0, 0, 0); fill: none;" x1="475.0" x2="475.0" y1="152.0"/>
	    <line pointer-events="none" y2="124.0" style="stroke: rgb(0, 0, 0); fill: none;" x1="498.0" x2="498.0" y1="150.0"/>
	    <line pointer-events="none" y2="121.0" style="stroke: rgb(0, 0, 0); fill: none;" x1="484.0" x2="484.0" y1="152.0"/>
	    <line pointer-events="none" y2="153.0" style="stroke: rgb(0, 0, 0); fill: none;" x1="491.0" x2="491.0" y1="120.0"/>
	    <line pointer-events="none" y2="210.0" style="stroke: rgb(0, 0, 0); fill: none;" x1="488.0" x2="488.0" y1="166.0"/>
	    <line pointer-events="none" y2="210.0" style="stroke: rgb(0, 0, 0); fill: none;" x1="479.0" x2="471.0" y1="167.0"/>
	    <line pointer-events="none" y2="210.0" style="stroke: rgb(0, 0, 0); fill: none;" x1="464.0" x2="449.0" y1="167.0"/>
	    <line pointer-events="none" y2="214.0" style="stroke: rgb(0, 0, 0); fill: none;" x1="454.0" x2="423.0" y1="170.0"/>
	    <line pointer-events="none" y2="183.0" style="stroke: rgb(0, 0, 0); fill: none;" x1="405.0" x2="432.0" y1="214.0"/>
	    <line pointer-events="none" y2="211.0" style="stroke: rgb(0, 0, 0); fill: none;" x1="500.0" x2="506.0" y1="168.0"/>
	    <line pointer-events="none" y2="210.0" style="stroke: rgb(0, 0, 0); fill: none;" x1="511.0" x2="528.0" y1="168.0"/>
	    <line pointer-events="none" y2="213.0" style="stroke: rgb(0, 0, 0); fill: none;" x1="525.0" x2="555.0" y1="172.0"/>
	    <line pointer-events="none" y2="217.0" style="stroke: rgb(0, 0, 0); fill: none;" x1="543.0" x2="579.0" y1="180.0"/>
	    <line pointer-events="none" y2="113.0" style="stroke: rgb(0, 0, 0); fill: none;" x1="482.0" x2="482.0" y1="74.0"/>	    
	</g>
</a>
<a >
	<g onclick="fnGraphOnClick(evt)">
		<rect rel-id="C000" x='62' y='265' width='36' height='11' rx='2' ry='2' fill='#FFFFFF'/>
	    <text pointer-events="none"><tspan x="62" y="275" font-family="'Tahoma'" font-size="11">Central</tspan></text>
	</g>
</a>
<!-- CQINT00029458 - Code Modified for Enhancement changes - End-->	
<g>
			<text transform="matrix(1 0 0 1 130 49)" pointer-events="none"><tspan x="0" y="0" font-family="'Tahoma'" font-size="11">Sussex</tspan></text>
			<text transform="matrix(1 0 0 1 178 62)" pointer-events="none"><tspan x="0" y="0" font-family="'Tahoma'" font-size="11">Passaic</tspan></text>
			<text class="label" transform="matrix(1 0 0 1 225 77)" pointer-events="none"><tspan x="0" y="0" font-family="'Tahoma'" font-size="11">Bergen</tspan></text>
			<text class="label" transform="matrix(1 0 0 1 88 99)" pointer-events="none"><tspan x="0" y="0" font-family="'Tahoma'" font-size="11">Warren</tspan></text>
			<text class="label" transform="matrix(1 0 0 1 157 107)" pointer-events="none"><tspan x="0" y="0" font-family="'Tahoma'" font-size="11">Morris</tspan></text>
			<text class="label" transform="matrix(1 0 0 1 201 128)" pointer-events="none"><tspan x="0" y="0" font-family="'Tahoma'" font-size="11">Essex</tspan></text>
			<text class="label" transform="matrix(1 0 0 1 241 137)" pointer-events="none"><tspan x="0" y="0" font-family="'Tahoma'" font-size="11">Hudson</tspan></text>
			<text class="label" transform="matrix(1 0 0 1 83 168)" pointer-events="none"><tspan x="0" y="0" font-family="'Tahoma'" font-size="11">Hunterdon</tspan></text>
			<text class="label" transform="matrix(0.5976 -0.8018 0.8018 0.6 144 199)" pointer-events="none"><tspan x="0" y="0" font-family="'Tahoma'" font-size="11">Somerset</tspan></text>
			<text class="label" transform="matrix(1 0 0 1 195 154)" pointer-events="none"><tspan x="0" y="0" font-family="'Tahoma'" font-size="11">Union</tspan></text>
			<text class="label" transform="matrix(1 0 0 1 129 239)" pointer-events="none"><tspan x="0" y="0" font-family="'Tahoma'" font-size="11">Mercer</tspan></text>
			<text class="label" transform="matrix(0.6517 -0.7585 0.7585 0.6517 177 222)" pointer-events="none"><tspan x="0" y="0" font-family="'Tahoma'" font-size="11">Middlesex</tspan></text>
			<text class="label" transform="matrix(1 0 0 1 200 242)" pointer-events="none"><tspan x="0" y="0" font-family="'Tahoma'" font-size="11">Monmouth</tspan></text>
			<text class="label" transform="matrix(1 0 0 1 123 322)" pointer-events="none"><tspan x="0" y="0" font-family="'Tahoma'" font-size="11">Burlington</tspan></text>
			<text class="label" transform="matrix(1 0 0 1 204 318)" pointer-events="none"><tspan x="0" y="0" font-family="'Tahoma'" font-size="11">Ocean</tspan></text>		
			<text class="label" transform="matrix(1 0 0 1 93 354)" pointer-events="none"><tspan x="0" y="0" font-family="'Tahoma'" font-size="11">Camden</tspan></text>
			<text class="label" transform="matrix(1 0 0 1 134 411)" pointer-events="none"><tspan x="0" y="0" font-family="'Tahoma'" font-size="11">Atlantic</tspan></text>
			<text class="label" transform="matrix(0.737 0.6759 -0.6759 0.737 55 344)" pointer-events="none"><tspan x="0" y="0" font-family="'Tahoma'" font-size="11">Gloucester</tspan></text>
			<text class="label" transform="matrix(1 0 0 1 20 384)" pointer-events="none"><tspan x="0" y="0" font-family="'Tahoma'" font-size="11">Salem</tspan></text>
			<text class="label" transform="matrix(1 0 0 1 49 436)" pointer-events="none"><tspan x="0" y="0" font-family="'Tahoma'" font-size="11">Cumberland</tspan></text>
			<text class="label" transform="matrix(0.5248 -0.8512 0.8512 0.5248 123 500)" pointer-events="none"><tspan x="0" y="0" font-family="'Tahoma'" font-size="11">Cape May</tspan></text>			
</g>
</g>
<g id='ToolTip' opacity='0.8' display='none' pointer-events='none' transform="scale(.7)">
	<rect id='tipbox' x='0' y='5' width='88' height='20' rx='2' ry='2' fill='Aliceblue' stroke='black'/>
		<text id='tipText' x='5' y='17'  font-family='Arial' font-size='9' font-weight='bold'>
         <tspan id='tipTitle' x='5' fill='blue'>Name</tspan>
         <tspan id='tipDesc' x='5' dy='1.2em' fill='blue'>Desc</tspan>
		</text>
</g>
</svg>